STARTFONT 2.1
FONT -Monotype-Arial-Regular-R-Normal--18-180-75-75-P-86-iso8859-2
SIZE 18 75 75
FONTBOUNDINGBOX 23 22 -4 -4

STARTPROPERTIES 24
FOUNDRY "Monotype"
FAMILY_NAME "Arial"
WEIGHT_NAME "Regular"
SLANT "R"
SETWIDTH_NAME "Normal"
ADD_STYLE_NAME ""
PIXEL_SIZE 18
POINT_SIZE 180
RESOLUTION_X 75
RESOLUTION_Y 75
SPACING "P"
AVERAGE_WIDTH 86
CHARSET_REGISTRY "iso8859"
CHARSET_ENCODING "2"
FACE_NAME "Arial ISO Latin2"
_DEC_DEVICE_FONTNAMES "PS=arial-lat2"
COPYRIGHT "Copyright (c) 1994 Monotype Typography Ltd."
CAP_HEIGHT 15
X_HEIGHT 11
WEIGHT 10
QUAD_WIDTH 11
DEFAULT_CHAR 160
FONT_DESCENT 4
FONT_ASCENT 18
ENDPROPERTIES

CHARS 191

STARTCHAR space
ENCODING 32
SWIDTH 333 0
DWIDTH 6 0
BBX 0 0 0 0
BITMAP
ENDCHAR

STARTCHAR exclam
ENCODING 33
SWIDTH 278 0
DWIDTH 5 0
BBX 2 14 1 0
BITMAP
C0
C0
C0
C0
C0
C0
C0
C0
C0
C0
C0
00
C0
C0
ENDCHAR

STARTCHAR quotedbl
ENCODING 34
SWIDTH 355 0
DWIDTH 7 0
BBX 5 5 1 9
BITMAP
D8
D8
D8
D8
48
ENDCHAR

STARTCHAR numbersign
ENCODING 35
SWIDTH 556 0
DWIDTH 11 0
BBX 11 14 -1 0
BITMAP
0CC0
0CC0
0CC0
0CC0
7FE0
1980
1980
1980
1980
FFC0
3300
3300
3300
3300
ENDCHAR

STARTCHAR dollar
ENCODING 36
SWIDTH 556 0
DWIDTH 11 0
BBX 9 18 1 -2
BITMAP
0800
0800
3E00
7F00
C980
C980
C800
E800
7C00
1F00
0B80
0980
C980
C980
7F00
3E00
0800
0800
ENDCHAR

STARTCHAR percent
ENCODING 37
SWIDTH 889 0
DWIDTH 17 0
BBX 14 14 1 0
BITMAP
7020
D820
8840
8840
8880
D880
7100
0138
026C
0244
0444
0444
086C
0838
ENDCHAR

STARTCHAR ampersand
ENCODING 38
SWIDTH 667 0
DWIDTH 13 0
BBX 12 14 1 0
BITMAP
1F00
3F80
3180
3180
3B00
1E00
3C00
7600
E330
C1E0
C0C0
C1C0
7FE0
3E30
ENDCHAR

STARTCHAR quoteright
ENCODING 39
SWIDTH 222 0
DWIDTH 4 0
BBX 2 4 1 10
BITMAP
C0
C0
40
80
ENDCHAR

STARTCHAR parenleft
ENCODING 40
SWIDTH 333 0
DWIDTH 6 0
BBX 5 18 1 -4
BITMAP
08
10
30
20
60
60
C0
C0
C0
C0
C0
C0
60
60
20
30
10
08
ENDCHAR

STARTCHAR parenright
ENCODING 41
SWIDTH 333 0
DWIDTH 6 0
BBX 5 18 0 -4
BITMAP
80
40
60
20
30
30
18
18
18
18
18
18
30
30
20
60
40
80
ENDCHAR

STARTCHAR asterisk
ENCODING 42
SWIDTH 389 0
DWIDTH 7 0
BBX 7 6 0 8
BITMAP
10
10
FE
38
6C
44
ENDCHAR

STARTCHAR plus
ENCODING 43
SWIDTH 584 0
DWIDTH 11 0
BBX 8 8 2 3
BITMAP
18
18
18
FF
FF
18
18
18
ENDCHAR

STARTCHAR comma
ENCODING 44
SWIDTH 278 0
DWIDTH 5 0
BBX 2 4 1 -2
BITMAP
C0
C0
40
80
ENDCHAR

STARTCHAR minus
ENCODING 45
SWIDTH 584 0
DWIDTH 11 0
BBX 9 2 1 6
BITMAP
FF80
FF80
ENDCHAR

STARTCHAR period
ENCODING 46
SWIDTH 278 0
DWIDTH 5 0
BBX 2 2 1 0
BITMAP
C0
C0
ENDCHAR

STARTCHAR slash
ENCODING 47
SWIDTH 278 0
DWIDTH 5 0
BBX 5 14 0 0
BITMAP
18
18
18
30
30
30
30
60
60
60
C0
C0
C0
C0
ENDCHAR

STARTCHAR zero
ENCODING 48
SWIDTH 556 0
DWIDTH 11 0
BBX 9 14 1 0
BITMAP
3E00
7F00
6300
C180
C180
C180
C180
C180
C180
C180
C180
6300
7F00
3E00
ENDCHAR

STARTCHAR one
ENCODING 49
SWIDTH 556 0
DWIDTH 11 0
BBX 5 14 2 0
BITMAP
18
38
78
D8
18
18
18
18
18
18
18
18
18
18
ENDCHAR

STARTCHAR two
ENCODING 50
SWIDTH 556 0
DWIDTH 11 0
BBX 9 14 1 0
BITMAP
3E00
7F00
C380
C180
0180
0100
0300
0600
0C00
1800
3000
6000
FF80
FF80
ENDCHAR

STARTCHAR three
ENCODING 51
SWIDTH 556 0
DWIDTH 11 0
BBX 9 14 1 0
BITMAP
3C00
7E00
C300
C300
0300
0600
1E00
1F00
0180
0180
C180
C180
7F00
3E00
ENDCHAR

STARTCHAR four
ENCODING 52
SWIDTH 556 0
DWIDTH 11 0
BBX 10 14 0 0
BITMAP
0300
0700
0F00
0B00
1B00
3300
3300
6300
4300
FFC0
FFC0
0300
0300
0300
ENDCHAR

STARTCHAR five
ENCODING 53
SWIDTH 556 0
DWIDTH 11 0
BBX 9 14 1 0
BITMAP
7F00
7F00
6000
6000
C000
DE00
FF00
C380
0180
0180
C180
C300
7F00
3E00
ENDCHAR

STARTCHAR six
ENCODING 54
SWIDTH 556 0
DWIDTH 11 0
BBX 9 14 1 0
BITMAP
1E00
3F00
6180
6000
C000
DE00
FF00
E380
C180
C180
C180
6300
7F00
1E00
ENDCHAR

STARTCHAR seven
ENCODING 55
SWIDTH 556 0
DWIDTH 11 0
BBX 9 14 1 0
BITMAP
FF80
FF80
0300
0600
0600
0C00
0C00
1800
1800
1800
3000
3000
3000
3000
ENDCHAR

STARTCHAR eight
ENCODING 56
SWIDTH 556 0
DWIDTH 11 0
BBX 8 14 1 0
BITMAP
3C
7E
C3
C3
C3
66
3C
7E
C3
C3
C3
C3
7E
3C
ENDCHAR

STARTCHAR nine
ENCODING 57
SWIDTH 556 0
DWIDTH 11 0
BBX 9 14 1 0
BITMAP
3C00
7F00
E300
C180
C180
C180
C380
7F80
3D80
0180
0300
C300
7E00
3C00
ENDCHAR

STARTCHAR colon
ENCODING 58
SWIDTH 278 0
DWIDTH 5 0
BBX 2 10 1 0
BITMAP
C0
C0
00
00
00
00
00
00
C0
C0
ENDCHAR

STARTCHAR semicolon
ENCODING 59
SWIDTH 278 0
DWIDTH 5 0
BBX 2 12 1 -2
BITMAP
C0
C0
00
00
00
00
00
00
C0
C0
40
80
ENDCHAR

STARTCHAR less
ENCODING 60
SWIDTH 584 0
DWIDTH 11 0
BBX 9 8 1 3
BITMAP
0380
0E00
3800
E000
E000
3800
0E00
0380
ENDCHAR

STARTCHAR equal
ENCODING 61
SWIDTH 584 0
DWIDTH 11 0
BBX 9 6 1 4
BITMAP
FF80
FF80
0000
0000
FF80
FF80
ENDCHAR

STARTCHAR greater
ENCODING 62
SWIDTH 584 0
DWIDTH 11 0
BBX 9 8 1 3
BITMAP
E000
3800
0E00
0380
0380
0E00
3800
E000
ENDCHAR

STARTCHAR question
ENCODING 63
SWIDTH 556 0
DWIDTH 11 0
BBX 9 14 1 0
BITMAP
3E00
7F00
C180
8180
0180
0300
0600
0C00
1800
1800
1800
0000
1800
1800
ENDCHAR

STARTCHAR at
ENCODING 64
SWIDTH 1015 0
DWIDTH 19 0
BBX 18 18 1 -4
BITMAP
07F000
1C1C00
300600
600300
43D900
C67980
8C3880
883080
983080
983180
983100
986300
CCBE00
473800
6001C0
300300
1C0E00
07F800
ENDCHAR

STARTCHAR A
ENCODING 65
SWIDTH 667 0
DWIDTH 13 0
BBX 12 14 0 0
BITMAP
0600
0600
0F00
0F00
0F00
1980
1980
30C0
3FC0
3FC0
6060
6060
C030
C030
ENDCHAR

STARTCHAR B
ENCODING 66
SWIDTH 667 0
DWIDTH 13 0
BBX 11 14 1 0
BITMAP
FF00
FF80
C0C0
C0C0
C0C0
C180
FF00
FF80
C0C0
C060
C060
C0E0
FFC0
FF00
ENDCHAR

STARTCHAR C
ENCODING 67
SWIDTH 722 0
DWIDTH 14 0
BBX 12 14 1 0
BITMAP
0F80
3FE0
7070
6030
E000
C000
C000
C000
C000
E000
6030
7070
3FE0
0F80
ENDCHAR

STARTCHAR D
ENCODING 68
SWIDTH 722 0
DWIDTH 14 0
BBX 12 14 1 0
BITMAP
FF00
FFC0
C0E0
C060
C070
C030
C030
C030
C030
C070
C060
C0E0
FFC0
FF00
ENDCHAR

STARTCHAR E
ENCODING 69
SWIDTH 667 0
DWIDTH 13 0
BBX 10 14 1 0
BITMAP
FFC0
FFC0
C000
C000
C000
C000
FF80
FF80
C000
C000
C000
C000
FFC0
FFC0
ENDCHAR

STARTCHAR F
ENCODING 70
SWIDTH 611 0
DWIDTH 12 0
BBX 9 14 1 0
BITMAP
FF80
FF80
C000
C000
C000
C000
FF00
FF00
C000
C000
C000
C000
C000
C000
ENDCHAR

STARTCHAR G
ENCODING 71
SWIDTH 778 0
DWIDTH 15 0
BBX 12 14 1 0
BITMAP
0F80
3FE0
7070
6030
C000
C000
C000
C1F0
C1F0
C030
6030
7070
3FE0
0F80
ENDCHAR

STARTCHAR H
ENCODING 72
SWIDTH 722 0
DWIDTH 14 0
BBX 11 14 1 0
BITMAP
C060
C060
C060
C060
C060
C060
FFE0
FFE0
C060
C060
C060
C060
C060
C060
ENDCHAR

STARTCHAR I
ENCODING 73
SWIDTH 278 0
DWIDTH 5 0
BBX 2 14 1 0
BITMAP
C0
C0
C0
C0
C0
C0
C0
C0
C0
C0
C0
C0
C0
C0
ENDCHAR

STARTCHAR J
ENCODING 74
SWIDTH 500 0
DWIDTH 10 0
BBX 7 14 1 0
BITMAP
06
06
06
06
06
06
06
06
06
06
C6
CE
FC
78
ENDCHAR

STARTCHAR K
ENCODING 75
SWIDTH 667 0
DWIDTH 13 0
BBX 11 14 1 0
BITMAP
C0E0
C1C0
C380
C700
CE00
DC00
FC00
FE00
E700
C300
C180
C1C0
C0E0
C060
ENDCHAR

STARTCHAR L
ENCODING 76
SWIDTH 556 0
DWIDTH 11 0
BBX 9 14 1 0
BITMAP
C000
C000
C000
C000
C000
C000
C000
C000
C000
C000
C000
C000
FF80
FF80
ENDCHAR

STARTCHAR M
ENCODING 77
SWIDTH 833 0
DWIDTH 16 0
BBX 13 14 1 0
BITMAP
C018
C018
E038
E038
F078
D058
D8D8
C898
C898
CD98
C518
C718
C218
C218
ENDCHAR

STARTCHAR N
ENCODING 78
SWIDTH 722 0
DWIDTH 14 0
BBX 11 14 1 0
BITMAP
C060
E060
E060
F060
D060
D860
CC60
C660
C660
C360
C1E0
C0E0
C0E0
C060
ENDCHAR

STARTCHAR O
ENCODING 79
SWIDTH 778 0
DWIDTH 15 0
BBX 13 14 1 0
BITMAP
0F80
3FE0
7070
6030
E038
C018
C018
C018
C018
E038
6030
7070
3FE0
0F80
ENDCHAR

STARTCHAR P
ENCODING 80
SWIDTH 667 0
DWIDTH 13 0
BBX 11 14 1 0
BITMAP
FF00
FFC0
C0E0
C060
C060
C0E0
FFC0
FF00
C000
C000
C000
C000
C000
C000
ENDCHAR

STARTCHAR Q
ENCODING 81
SWIDTH 778 0
DWIDTH 15 0
BBX 13 15 1 -1
BITMAP
0F80
3FE0
7070
6030
E038
C018
C018
C018
C018
E038
61B0
70F0
3FF0
0F98
0008
ENDCHAR

STARTCHAR R
ENCODING 82
SWIDTH 722 0
DWIDTH 14 0
BBX 12 14 1 0
BITMAP
FF80
FFC0
C060
C060
C060
C0E0
FFC0
FF00
C300
C180
C0C0
C0C0
C060
C030
ENDCHAR

STARTCHAR S
ENCODING 83
SWIDTH 667 0
DWIDTH 13 0
BBX 11 14 1 0
BITMAP
1F00
7FC0
E0E0
C060
E000
7800
3F00
07C0
00E0
0060
C060
E0E0
7FC0
1F00
ENDCHAR

STARTCHAR T
ENCODING 84
SWIDTH 611 0
DWIDTH 12 0
BBX 10 14 1 0
BITMAP
FFC0
FFC0
0C00
0C00
0C00
0C00
0C00
0C00
0C00
0C00
0C00
0C00
0C00
0C00
ENDCHAR

STARTCHAR U
ENCODING 85
SWIDTH 722 0
DWIDTH 14 0
BBX 11 14 1 0
BITMAP
C060
C060
C060
C060
C060
C060
C060
C060
C060
E0E0
60C0
71C0
3F80
1F00
ENDCHAR

STARTCHAR V
ENCODING 86
SWIDTH 667 0
DWIDTH 13 0
BBX 12 14 0 0
BITMAP
E070
6060
6060
30C0
30C0
30C0
1980
1980
1980
0F00
0F00
0F00
0600
0600
ENDCHAR

STARTCHAR W
ENCODING 87
SWIDTH 944 0
DWIDTH 18 0
BBX 17 14 0 0
BITMAP
C1C180
61C300
61C300
61C300
336600
336600
336600
1B6C00
1B6C00
1E3C00
1E3C00
0C1800
0C1800
0C1800
ENDCHAR

STARTCHAR X
ENCODING 88
SWIDTH 667 0
DWIDTH 13 0
BBX 13 14 0 0
BITMAP
6030
3060
3060
18C0
0D80
0F80
0700
0700
0D80
18C0
3060
3060
6030
C018
ENDCHAR

STARTCHAR Y
ENCODING 89
SWIDTH 667 0
DWIDTH 13 0
BBX 12 14 0 0
BITMAP
C030
6060
6060
30C0
1980
1980
0F00
0600
0600
0600
0600
0600
0600
0600
ENDCHAR

STARTCHAR Z
ENCODING 90
SWIDTH 611 0
DWIDTH 12 0
BBX 10 14 1 0
BITMAP
FFC0
FFC0
0180
0300
0700
0600
0C00
1800
3000
3000
6000
C000
FFC0
FFC0
ENDCHAR

STARTCHAR bracketleft
ENCODING 91
SWIDTH 278 0
DWIDTH 5 0
BBX 4 18 1 -4
BITMAP
F0
F0
C0
C0
C0
C0
C0
C0
C0
C0
C0
C0
C0
C0
C0
C0
F0
F0
ENDCHAR

STARTCHAR backslash
ENCODING 92
SWIDTH 278 0
DWIDTH 5 0
BBX 5 14 0 0
BITMAP
C0
C0
C0
60
60
60
60
30
30
30
18
18
18
18
ENDCHAR

STARTCHAR bracketright
ENCODING 93
SWIDTH 278 0
DWIDTH 5 0
BBX 4 18 0 -4
BITMAP
F0
F0
30
30
30
30
30
30
30
30
30
30
30
30
30
30
F0
F0
ENDCHAR

STARTCHAR asciicircum
ENCODING 94
SWIDTH 469 0
DWIDTH 9 0
BBX 7 8 1 6
BITMAP
10
38
28
6C
4C
C6
C6
82
ENDCHAR

STARTCHAR underscore
ENCODING 95
SWIDTH 556 0
DWIDTH 11 0
BBX 11 1 0 -2
BITMAP
FFE0
ENDCHAR

STARTCHAR quoteleft
ENCODING 96
SWIDTH 222 0
DWIDTH 4 0
BBX 2 4 1 9
BITMAP
40
80
C0
C0
ENDCHAR

STARTCHAR a
ENCODING 97
SWIDTH 556 0
DWIDTH 11 0
BBX 9 10 1 0
BITMAP
3F00
7F80
C180
0180
1F80
7180
C180
C380
FF80
7D80
ENDCHAR

STARTCHAR b
ENCODING 98
SWIDTH 556 0
DWIDTH 11 0
BBX 9 14 1 0
BITMAP
C000
C000
C000
C000
DE00
FF00
E300
C180
C180
C180
C180
E300
FF00
DE00
ENDCHAR

STARTCHAR c
ENCODING 99
SWIDTH 500 0
DWIDTH 10 0
BBX 8 10 1 0
BITMAP
3E
7F
63
C0
C0
C0
C0
63
7F
3E
ENDCHAR

STARTCHAR d
ENCODING 100
SWIDTH 556 0
DWIDTH 11 0
BBX 9 14 1 0
BITMAP
0180
0180
0180
0180
3D80
7F80
6380
C180
C180
C180
C180
6380
7F80
3D80
ENDCHAR

STARTCHAR e
ENCODING 101
SWIDTH 556 0
DWIDTH 11 0
BBX 9 10 1 0
BITMAP
3E00
7F00
6180
C180
FF80
FF80
C000
6180
7F00
3E00
ENDCHAR

STARTCHAR f
ENCODING 102
SWIDTH 278 0
DWIDTH 5 0
BBX 5 14 0 0
BITMAP
38
78
60
60
F8
F8
60
60
60
60
60
60
60
60
ENDCHAR

STARTCHAR g
ENCODING 103
SWIDTH 556 0
DWIDTH 11 0
BBX 9 14 1 -4
BITMAP
3D80
7F80
6380
C180
C180
C180
C180
6380
7F80
3D80
0180
C300
7F00
3E00
ENDCHAR

STARTCHAR h
ENCODING 104
SWIDTH 556 0
DWIDTH 10 0
BBX 8 14 1 0
BITMAP
C0
C0
C0
C0
DE
FF
E3
C3
C3
C3
C3
C3
C3
C3
ENDCHAR

STARTCHAR i
ENCODING 105
SWIDTH 222 0
DWIDTH 4 0
BBX 2 14 1 0
BITMAP
C0
C0
00
00
C0
C0
C0
C0
C0
C0
C0
C0
C0
C0
ENDCHAR

STARTCHAR j
ENCODING 106
SWIDTH 222 0
DWIDTH 4 0
BBX 4 18 -1 -4
BITMAP
30
30
00
00
30
30
30
30
30
30
30
30
30
30
30
30
F0
E0
ENDCHAR

STARTCHAR k
ENCODING 107
SWIDTH 500 0
DWIDTH 10 0
BBX 9 14 1 0
BITMAP
C000
C000
C000
C000
C300
C600
CC00
D800
F000
D800
CC00
C600
C300
C180
ENDCHAR

STARTCHAR l
ENCODING 108
SWIDTH 222 0
DWIDTH 4 0
BBX 2 14 1 0
BITMAP
C0
C0
C0
C0
C0
C0
C0
C0
C0
C0
C0
C0
C0
C0
ENDCHAR

STARTCHAR m
ENCODING 109
SWIDTH 833 0
DWIDTH 16 0
BBX 14 10 1 0
BITMAP
DCF8
FFFC
E30C
C30C
C30C
C30C
C30C
C30C
C30C
C30C
ENDCHAR

STARTCHAR n
ENCODING 110
SWIDTH 556 0
DWIDTH 10 0
BBX 8 10 1 0
BITMAP
DE
FF
E3
C3
C3
C3
C3
C3
C3
C3
ENDCHAR

STARTCHAR o
ENCODING 111
SWIDTH 556 0
DWIDTH 11 0
BBX 9 10 1 0
BITMAP
3E00
7F00
6300
C180
C180
C180
C180
6300
7F00
3E00
ENDCHAR

STARTCHAR p
ENCODING 112
SWIDTH 556 0
DWIDTH 11 0
BBX 9 14 1 -4
BITMAP
DE00
FF00
E300
C180
C180
C180
C180
E300
FF00
DE00
C000
C000
C000
C000
ENDCHAR

STARTCHAR q
ENCODING 113
SWIDTH 556 0
DWIDTH 11 0
BBX 9 14 1 -4
BITMAP
3D80
7F80
6380
C180
C180
C180
C180
6380
7F80
3D80
0180
0180
0180
0180
ENDCHAR

STARTCHAR r
ENCODING 114
SWIDTH 333 0
DWIDTH 7 0
BBX 6 10 1 0
BITMAP
DC
FC
E0
C0
C0
C0
C0
C0
C0
C0
ENDCHAR

STARTCHAR s
ENCODING 115
SWIDTH 500 0
DWIDTH 10 0
BBX 8 10 1 0
BITMAP
7E
FF
C3
F0
7C
1E
07
C3
FF
7E
ENDCHAR

STARTCHAR t
ENCODING 116
SWIDTH 278 0
DWIDTH 5 0
BBX 5 14 0 0
BITMAP
20
60
60
60
F8
F8
60
60
60
60
60
60
78
38
ENDCHAR

STARTCHAR u
ENCODING 117
SWIDTH 556 0
DWIDTH 10 0
BBX 8 10 1 0
BITMAP
C3
C3
C3
C3
C3
C3
C3
C7
FF
7B
ENDCHAR

STARTCHAR v
ENCODING 118
SWIDTH 500 0
DWIDTH 10 0
BBX 10 10 0 0
BITMAP
C0C0
C0C0
6180
6180
3300
3300
1E00
1E00
0C00
0C00
ENDCHAR

STARTCHAR w
ENCODING 119
SWIDTH 722 0
DWIDTH 16 0
BBX 16 10 0 0
BITMAP
C183
C183
6186
63C6
33CC
37EC
1E78
1E78
0C30
0C30
ENDCHAR

STARTCHAR x
ENCODING 120
SWIDTH 500 0
DWIDTH 11 0
BBX 9 10 1 0
BITMAP
C180
6300
6300
3600
1C00
1C00
3600
6300
6300
C180
ENDCHAR

STARTCHAR y
ENCODING 121
SWIDTH 500 0
DWIDTH 10 0
BBX 10 14 0 -4
BITMAP
C0C0
6180
6180
3300
3300
1E00
1E00
0E00
0C00
0C00
1800
1800
7000
6000
ENDCHAR

STARTCHAR z
ENCODING 122
SWIDTH 500 0
DWIDTH 11 0
BBX 9 10 1 0
BITMAP
FF80
FF80
0300
0600
0C00
0C00
1800
3000
7F80
FF80
ENDCHAR

STARTCHAR braceleft
ENCODING 123
SWIDTH 334 0
DWIDTH 6 0
BBX 6 18 0 -4
BITMAP
1C
3C
30
30
30
30
30
30
E0
E0
30
30
30
30
30
30
3C
1C
ENDCHAR

STARTCHAR bar
ENCODING 124
SWIDTH 260 0
DWIDTH 5 0
BBX 2 18 1 -4
BITMAP
C0
C0
C0
C0
C0
C0
C0
C0
C0
C0
C0
C0
C0
C0
C0
C0
C0
C0
ENDCHAR

STARTCHAR braceright
ENCODING 125
SWIDTH 334 0
DWIDTH 6 0
BBX 6 18 0 -4
BITMAP
E0
F0
30
30
30
30
30
30
1C
1C
30
30
30
30
30
30
F0
E0
ENDCHAR

STARTCHAR asciitilde
ENCODING 126
SWIDTH 584 0
DWIDTH 11 0
BBX 9 3 1 5
BITMAP
7880
FF80
8700
ENDCHAR

STARTCHAR space
ENCODING 160
SWIDTH 333 0
DWIDTH 7 0
BBX 0 0 0 0
BITMAP
ENDCHAR

STARTCHAR Aogonek
ENCODING 161
SWIDTH 667 0
DWIDTH 13 0
BBX 13 17 0 -3
BITMAP
0600
0600
0F00
0F00
0F00
1980
1980
30C0
3FC0
3FC0
6060
6060
C030
C030
0020
0030
0018
ENDCHAR

STARTCHAR breve
ENCODING 162
SWIDTH 333 0
DWIDTH 6 0
BBX 7 3 0 11
BITMAP
C6
7C
38
ENDCHAR

STARTCHAR Lslash
ENCODING 163
SWIDTH 556 0
DWIDTH 11 0
BBX 10 14 0 0
BITMAP
6000
6000
6000
6400
6C00
7800
7000
6000
E000
E000
6000
6000
7FC0
7FC0
ENDCHAR

STARTCHAR currency
ENCODING 164
SWIDTH 556 0
DWIDTH 11 0
BBX 8 8 1 3
BITMAP
DB
FF
42
C3
C3
42
FF
DB
ENDCHAR

STARTCHAR Lcaron
ENCODING 165
SWIDTH 556 0
DWIDTH 11 0
BBX 9 14 1 0
BITMAP
CC00
CC00
C400
C800
C000
C000
C000
C000
C000
C000
C000
C000
FF80
FF80
ENDCHAR

STARTCHAR Sacute
ENCODING 166
SWIDTH 667 0
DWIDTH 13 0
BBX 11 18 1 0
BITMAP
0380
0300
0600
0000
1F00
7FC0
E0E0
C060
E000
7800
3F00
07C0
00E0
0060
C060
E0E0
7FC0
1F00
ENDCHAR

STARTCHAR section
ENCODING 167
SWIDTH 556 0
DWIDTH 11 0
BBX 10 18 0 -4
BITMAP
1E00
3300
6180
6000
3000
7C00
CF00
C380
C1C0
60C0
38C0
1D80
0700
0380
0180
6180
7300
3E00
ENDCHAR

STARTCHAR dieresis
ENCODING 168
SWIDTH 333 0
DWIDTH 6 0
BBX 6 2 0 11
BITMAP
CC
CC
ENDCHAR

STARTCHAR Scaron
ENCODING 169
SWIDTH 667 0
DWIDTH 13 0
BBX 11 18 1 0
BITMAP
1980
0F00
0600
0000
1F00
7FC0
E0E0
C060
E000
7800
3F00
07C0
00E0
0060
C060
E0E0
7FC0
1F00
ENDCHAR

STARTCHAR Scommaaccent
ENCODING 170
SWIDTH 667 0
DWIDTH 13 0
BBX 11 18 1 -4
BITMAP
1F00
7FC0
E0E0
C060
E000
7800
3F00
07C0
00E0
0060
C060
E0E0
7FC0
1F00
0000
0C00
0C00
1800
ENDCHAR

STARTCHAR Tcaron
ENCODING 171
SWIDTH 611 0
DWIDTH 12 0
BBX 10 18 1 0
BITMAP
3300
1E00
0C00
0000
FFC0
FFC0
0C00
0C00
0C00
0C00
0C00
0C00
0C00
0C00
0C00
0C00
0C00
0C00
ENDCHAR

STARTCHAR Zacute
ENCODING 172
SWIDTH 611 0
DWIDTH 12 0
BBX 10 18 1 0
BITMAP
0700
0600
0C00
0000
FFC0
FFC0
0180
0300
0700
0600
0C00
1800
3000
3000
6000
C000
FFC0
FFC0
ENDCHAR

STARTCHAR hyphen
ENCODING 173
SWIDTH 333 0
DWIDTH 6 0
BBX 5 2 0 4
BITMAP
F8
F8
ENDCHAR

STARTCHAR Zcaron
ENCODING 174
SWIDTH 611 0
DWIDTH 12 0
BBX 10 18 1 0
BITMAP
3300
1E00
0C00
0000
FFC0
FFC0
0180
0300
0700
0600
0C00
1800
3000
3000
6000
C000
FFC0
FFC0
ENDCHAR

STARTCHAR Zdotaccent
ENCODING 175
SWIDTH 611 0
DWIDTH 12 0
BBX 10 17 1 0
BITMAP
0C00
0C00
0000
FFC0
FFC0
0180
0300
0700
0600
0C00
1800
3000
3000
6000
C000
FFC0
FFC0
ENDCHAR

STARTCHAR degree
ENCODING 176
SWIDTH 400 0
DWIDTH 8 0
BBX 5 5 1 9
BITMAP
70
88
88
88
70
ENDCHAR

STARTCHAR aogonek
ENCODING 177
SWIDTH 556 0
DWIDTH 11 0
BBX 10 13 1 -3
BITMAP
3F00
7F80
C180
0180
1F80
7180
C180
C380
FF80
7D80
0100
0180
00C0
ENDCHAR

STARTCHAR ogonek
ENCODING 178
SWIDTH 333 0
DWIDTH 6 0
BBX 3 3 2 -3
BITMAP
80
C0
60
ENDCHAR

STARTCHAR lslash
ENCODING 179
SWIDTH 222 0
DWIDTH 4 0
BBX 4 14 0 0
BITMAP
60
60
60
60
70
70
60
E0
E0
60
60
60
60
60
ENDCHAR

STARTCHAR acute
ENCODING 180
SWIDTH 333 0
DWIDTH 6 0
BBX 4 3 2 11
BITMAP
70
60
C0
ENDCHAR

STARTCHAR lcaron
ENCODING 181
SWIDTH 292 0
DWIDTH 5 0
BBX 5 14 1 0
BITMAP
D8
D8
C8
D0
C0
C0
C0
C0
C0
C0
C0
C0
C0
C0
ENDCHAR

STARTCHAR sacute
ENCODING 182
SWIDTH 500 0
DWIDTH 10 0
BBX 8 14 1 0
BITMAP
0E
0C
18
00
7E
FF
C3
F0
7C
1E
07
C3
FF
7E
ENDCHAR

STARTCHAR caron
ENCODING 183
SWIDTH 333 0
DWIDTH 6 0
BBX 6 3 0 11
BITMAP
CC
78
30
ENDCHAR

STARTCHAR commaaccent
ENCODING 184
SWIDTH 333 0
DWIDTH 6 0
BBX 3 3 1 -4
BITMAP
60
60
C0
ENDCHAR

STARTCHAR scaron
ENCODING 185
SWIDTH 500 0
DWIDTH 10 0
BBX 8 14 1 0
BITMAP
66
3C
18
00
7E
FF
C3
F0
7C
1E
07
C3
FF
7E
ENDCHAR

STARTCHAR scommaaccent
ENCODING 186
SWIDTH 500 0
DWIDTH 10 0
BBX 8 14 1 -4
BITMAP
7E
FF
C3
F0
7C
1E
07
C3
FF
7E
00
18
18
30
ENDCHAR

STARTCHAR tcaron
ENCODING 187
SWIDTH 375 0
DWIDTH 5 0
BBX 6 15 0 0
BITMAP
0C
2C
64
68
60
F8
F8
60
60
60
60
60
60
78
38
ENDCHAR

STARTCHAR zacute
ENCODING 188
SWIDTH 500 0
DWIDTH 11 0
BBX 9 14 1 0
BITMAP
0700
0600
0C00
0000
FF80
FF80
0300
0600
0C00
0C00
1800
3000
7F80
FF80
ENDCHAR

STARTCHAR hungarumlaut
ENCODING 189
SWIDTH 333 0
DWIDTH 6 0
BBX 8 3 -1 11
BITMAP
77
66
CC
ENDCHAR

STARTCHAR zcaron
ENCODING 190
SWIDTH 500 0
DWIDTH 11 0
BBX 9 14 1 0
BITMAP
3300
1E00
0C00
0000
FF80
FF80
0300
0600
0C00
0C00
1800
3000
7F80
FF80
ENDCHAR

STARTCHAR zdotaccent
ENCODING 191
SWIDTH 500 0
DWIDTH 11 0
BBX 9 13 1 0
BITMAP
0C00
0C00
0000
FF80
FF80
0300
0600
0C00
0C00
1800
3000
7F80
FF80
ENDCHAR

STARTCHAR Racute
ENCODING 192
SWIDTH 722 0
DWIDTH 14 0
BBX 12 18 1 0
BITMAP
0700
0600
0C00
0000
FF80
FFC0
C060
C060
C060
C0E0
FFC0
FF00
C300
C180
C0C0
C0C0
C060
C030
ENDCHAR

STARTCHAR Aacute
ENCODING 193
SWIDTH 667 0
DWIDTH 13 0
BBX 12 18 0 0
BITMAP
0380
0300
0600
0000
0600
0600
0F00
0F00
0F00
1980
1980
30C0
3FC0
3FC0
6060
6060
C030
C030
ENDCHAR

STARTCHAR Acircumflex
ENCODING 194
SWIDTH 667 0
DWIDTH 13 0
BBX 12 18 0 0
BITMAP
0600
0F00
1980
0000
0600
0600
0F00
0F00
0F00
1980
1980
30C0
3FC0
3FC0
6060
6060
C030
C030
ENDCHAR

STARTCHAR Abreve
ENCODING 195
SWIDTH 667 0
DWIDTH 13 0
BBX 12 18 0 0
BITMAP
18C0
0F80
0700
0000
0600
0600
0F00
0F00
0F00
1980
1980
30C0
3FC0
3FC0
6060
6060
C030
C030
ENDCHAR

STARTCHAR Adieresis
ENCODING 196
SWIDTH 667 0
DWIDTH 13 0
BBX 12 17 0 0
BITMAP
1980
1980
0000
0600
0600
0F00
0F00
0F00
1980
1980
30C0
3FC0
3FC0
6060
6060
C030
C030
ENDCHAR

STARTCHAR Lacute
ENCODING 197
SWIDTH 556 0
DWIDTH 11 0
BBX 9 18 1 0
BITMAP
1C00
1800
3000
0000
C000
C000
C000
C000
C000
C000
C000
C000
C000
C000
C000
C000
FF80
FF80
ENDCHAR

STARTCHAR Cacute
ENCODING 198
SWIDTH 722 0
DWIDTH 14 0
BBX 12 18 1 0
BITMAP
0380
0300
0600
0000
0F80
3FE0
7070
6030
E000
C000
C000
C000
C000
E000
6030
7070
3FE0
0F80
ENDCHAR

STARTCHAR Ccedilla
ENCODING 199
SWIDTH 722 0
DWIDTH 14 0
BBX 12 17 1 -3
BITMAP
0F80
3FE0
7070
6030
E000
C000
C000
C000
C000
E000
6030
7070
3FE0
0F80
0300
0100
0600
ENDCHAR

STARTCHAR Ccaron
ENCODING 200
SWIDTH 722 0
DWIDTH 14 0
BBX 12 18 1 0
BITMAP
1980
0F00
0600
0000
0F80
3FE0
7070
6030
E000
C000
C000
C000
C000
E000
6030
7070
3FE0
0F80
ENDCHAR

STARTCHAR Eacute
ENCODING 201
SWIDTH 667 0
DWIDTH 13 0
BBX 10 18 1 0
BITMAP
0700
0600
0C00
0000
FFC0
FFC0
C000
C000
C000
C000
FF80
FF80
C000
C000
C000
C000
FFC0
FFC0
ENDCHAR

STARTCHAR Eogonek
ENCODING 202
SWIDTH 667 0
DWIDTH 13 0
BBX 10 17 1 -3
BITMAP
FFC0
FFC0
C000
C000
C000
C000
FF80
FF80
C000
C000
C000
C000
FFC0
FFC0
0100
0180
00C0
ENDCHAR

STARTCHAR Edieresis
ENCODING 203
SWIDTH 667 0
DWIDTH 13 0
BBX 10 17 1 0
BITMAP
3300
3300
0000
FFC0
FFC0
C000
C000
C000
C000
FF80
FF80
C000
C000
C000
C000
FFC0
FFC0
ENDCHAR

STARTCHAR Ecaron
ENCODING 204
SWIDTH 667 0
DWIDTH 13 0
BBX 10 18 1 0
BITMAP
3300
1E00
0C00
0000
FFC0
FFC0
C000
C000
C000
C000
FF80
FF80
C000
C000
C000
C000
FFC0
FFC0
ENDCHAR

STARTCHAR Iacute
ENCODING 205
SWIDTH 278 0
DWIDTH 5 0
BBX 4 18 1 0
BITMAP
70
60
C0
00
C0
C0
C0
C0
C0
C0
C0
C0
C0
C0
C0
C0
C0
C0
ENDCHAR

STARTCHAR Icircumflex
ENCODING 206
SWIDTH 278 0
DWIDTH 5 0
BBX 6 18 -1 0
BITMAP
30
78
CC
00
30
30
30
30
30
30
30
30
30
30
30
30
30
30
ENDCHAR

STARTCHAR Dcaron
ENCODING 207
SWIDTH 722 0
DWIDTH 14 0
BBX 12 18 1 0
BITMAP
3300
1E00
0C00
0000
FF00
FFC0
C0E0
C060
C070
C030
C030
C030
C030
C070
C060
C0E0
FFC0
FF00
ENDCHAR

STARTCHAR Dcroat
ENCODING 208
SWIDTH 722 0
DWIDTH 14 0
BBX 13 14 0 0
BITMAP
7F80
7FE0
6070
6030
6038
6018
FC18
FC18
6018
6038
6030
6070
7FE0
7F80
ENDCHAR

STARTCHAR Nacute
ENCODING 209
SWIDTH 722 0
DWIDTH 14 0
BBX 11 18 1 0
BITMAP
0700
0600
0C00
0000
C060
E060
E060
F060
D060
D860
CC60
C660
C660
C360
C1E0
C0E0
C0E0
C060
ENDCHAR

STARTCHAR Ncaron
ENCODING 210
SWIDTH 722 0
DWIDTH 14 0
BBX 11 18 1 0
BITMAP
1980
0F00
0600
0000
C060
E060
E060
F060
D060
D860
CC60
C660
C660
C360
C1E0
C0E0
C0E0
C060
ENDCHAR

STARTCHAR Oacute
ENCODING 211
SWIDTH 778 0
DWIDTH 15 0
BBX 13 18 1 0
BITMAP
01C0
0180
0300
0000
0F80
3FE0
7070
6030
E038
C018
C018
C018
C018
E038
6030
7070
3FE0
0F80
ENDCHAR

STARTCHAR Ocircumflex
ENCODING 212
SWIDTH 778 0
DWIDTH 15 0
BBX 13 18 1 0
BITMAP
0300
0780
0CC0
0000
0F80
3FE0
7070
6030
E038
C018
C018
C018
C018
E038
6030
7070
3FE0
0F80
ENDCHAR

STARTCHAR Ohungarumlaut
ENCODING 213
SWIDTH 778 0
DWIDTH 15 0
BBX 13 18 1 0
BITMAP
0EE0
0CC0
1980
0000
0F80
3FE0
7070
6030
E038
C018
C018
C018
C018
E038
6030
7070
3FE0
0F80
ENDCHAR

STARTCHAR Odieresis
ENCODING 214
SWIDTH 778 0
DWIDTH 15 0
BBX 13 17 1 0
BITMAP
0D80
0D80
0000
0F80
3FE0
7070
6030
E038
C018
C018
C018
C018
E038
6030
7070
3FE0
0F80
ENDCHAR

STARTCHAR multiply
ENCODING 215
SWIDTH 584 0
DWIDTH 11 0
BBX 7 8 2 3
BITMAP
82
C6
6C
38
38
6C
C6
82
ENDCHAR

STARTCHAR Rcaron
ENCODING 216
SWIDTH 722 0
DWIDTH 14 0
BBX 12 18 1 0
BITMAP
3300
1E00
0C00
0000
FF80
FFC0
C060
C060
C060
C0E0
FFC0
FF00
C300
C180
C0C0
C0C0
C060
C030
ENDCHAR

STARTCHAR Uring
ENCODING 217
SWIDTH 722 0
DWIDTH 14 0
BBX 11 18 1 0
BITMAP
0400
0A00
0A00
0400
C060
C060
C060
C060
C060
C060
C060
C060
C060
E0E0
60C0
71C0
3F80
1F00
ENDCHAR

STARTCHAR Uacute
ENCODING 218
SWIDTH 722 0
DWIDTH 14 0
BBX 11 18 1 0
BITMAP
0700
0600
0C00
0000
C060
C060
C060
C060
C060
C060
C060
C060
C060
E0E0
60C0
71C0
3F80
1F00
ENDCHAR

STARTCHAR Uhungarumlaut
ENCODING 219
SWIDTH 722 0
DWIDTH 14 0
BBX 11 18 1 0
BITMAP
1DC0
1980
3300
0000
C060
C060
C060
C060
C060
C060
C060
C060
C060
E0E0
60C0
71C0
3F80
1F00
ENDCHAR

STARTCHAR Udieresis
ENCODING 220
SWIDTH 722 0
DWIDTH 14 0
BBX 11 17 1 0
BITMAP
1980
1980
0000
C060
C060
C060
C060
C060
C060
C060
C060
C060
E0E0
60C0
71C0
3F80
1F00
ENDCHAR

STARTCHAR Yacute
ENCODING 221
SWIDTH 667 0
DWIDTH 13 0
BBX 12 18 0 0
BITMAP
0380
0300
0600
0000
C030
6060
6060
30C0
1980
1980
0F00
0600
0600
0600
0600
0600
0600
0600
ENDCHAR

STARTCHAR Tcommaaccent
ENCODING 222
SWIDTH 611 0
DWIDTH 12 0
BBX 10 18 1 -4
BITMAP
FFC0
FFC0
0C00
0C00
0C00
0C00
0C00
0C00
0C00
0C00
0C00
0C00
0C00
0C00
0000
0C00
0C00
1800
ENDCHAR

STARTCHAR germandbls
ENCODING 223
SWIDTH 611 0
DWIDTH 12 0
BBX 10 14 1 0
BITMAP
3E00
6700
C300
C300
C600
CC00
CC00
C700
C780
C1C0
C0C0
C8C0
D980
CF00
ENDCHAR

STARTCHAR racute
ENCODING 224
SWIDTH 333 0
DWIDTH 7 0
BBX 6 14 1 0
BITMAP
1C
18
30
00
DC
FC
E0
C0
C0
C0
C0
C0
C0
C0
ENDCHAR

STARTCHAR aacute
ENCODING 225
SWIDTH 556 0
DWIDTH 11 0
BBX 9 14 1 0
BITMAP
0700
0600
0C00
0000
3F00
7F80
C180
0180
1F80
7180
C180
C380
FF80
7D80
ENDCHAR

STARTCHAR acircumflex
ENCODING 226
SWIDTH 556 0
DWIDTH 11 0
BBX 9 14 1 0
BITMAP
0C00
1E00
3300
0000
3F00
7F80
C180
0180
1F80
7180
C180
C380
FF80
7D80
ENDCHAR

STARTCHAR abreve
ENCODING 227
SWIDTH 556 0
DWIDTH 11 0
BBX 9 14 1 0
BITMAP
3180
1F00
0E00
0000
3F00
7F80
C180
0180
1F80
7180
C180
C380
FF80
7D80
ENDCHAR

STARTCHAR adieresis
ENCODING 228
SWIDTH 556 0
DWIDTH 11 0
BBX 9 13 1 0
BITMAP
3300
3300
0000
3F00
7F80
C180
0180
1F80
7180
C180
C380
FF80
7D80
ENDCHAR

STARTCHAR lacute
ENCODING 229
SWIDTH 222 0
DWIDTH 4 0
BBX 4 18 1 0
BITMAP
70
60
C0
00
C0
C0
C0
C0
C0
C0
C0
C0
C0
C0
C0
C0
C0
C0
ENDCHAR

STARTCHAR cacute
ENCODING 230
SWIDTH 500 0
DWIDTH 10 0
BBX 8 14 1 0
BITMAP
0E
0C
18
00
3E
7F
63
C0
C0
C0
C0
63
7F
3E
ENDCHAR

STARTCHAR ccedilla
ENCODING 231
SWIDTH 500 0
DWIDTH 10 0
BBX 8 13 1 -3
BITMAP
3E
7F
63
C0
C0
C0
C0
63
7F
3E
0C
04
18
ENDCHAR

STARTCHAR ccaron
ENCODING 232
SWIDTH 500 0
DWIDTH 10 0
BBX 8 14 1 0
BITMAP
33
1E
0C
00
3E
7F
63
C0
C0
C0
C0
63
7F
3E
ENDCHAR

STARTCHAR eacute
ENCODING 233
SWIDTH 556 0
DWIDTH 11 0
BBX 9 14 1 0
BITMAP
0E00
0C00
1800
0000
3E00
7F00
6180
C180
FF80
FF80
C000
6180
7F00
3E00
ENDCHAR

STARTCHAR eogonek
ENCODING 234
SWIDTH 556 0
DWIDTH 11 0
BBX 9 13 1 -3
BITMAP
3E00
7F00
6180
C180
FF80
FF80
C000
6180
7F00
3E00
0800
0C00
0600
ENDCHAR

STARTCHAR edieresis
ENCODING 235
SWIDTH 556 0
DWIDTH 11 0
BBX 9 13 1 0
BITMAP
3300
3300
0000
3E00
7F00
6180
C180
FF80
FF80
C000
6180
7F00
3E00
ENDCHAR

STARTCHAR ecaron
ENCODING 236
SWIDTH 556 0
DWIDTH 11 0
BBX 9 14 1 0
BITMAP
3300
1E00
0C00
0000
3E00
7F00
6180
C180
FF80
FF80
C000
6180
7F00
3E00
ENDCHAR

STARTCHAR iacute
ENCODING 237
SWIDTH 278 0
DWIDTH 4 0
BBX 4 14 1 0
BITMAP
70
60
C0
00
C0
C0
C0
C0
C0
C0
C0
C0
C0
C0
ENDCHAR

STARTCHAR icircumflex
ENCODING 238
SWIDTH 278 0
DWIDTH 4 0
BBX 6 14 -1 0
BITMAP
30
78
CC
00
30
30
30
30
30
30
30
30
30
30
ENDCHAR

STARTCHAR dcaron
ENCODING 239
SWIDTH 615 0
DWIDTH 12 0
BBX 12 14 1 0
BITMAP
01B0
01B0
0190
01A0
3D80
7F80
6380
C180
C180
C180
C180
6380
7F80
3D80
ENDCHAR

STARTCHAR dcroat
ENCODING 240
SWIDTH 556 0
DWIDTH 11 0
BBX 10 14 1 0
BITMAP
0180
07C0
07C0
0180
3D80
7F80
6380
C180
C180
C180
C180
6380
7F80
3D80
ENDCHAR

STARTCHAR nacute
ENCODING 241
SWIDTH 556 0
DWIDTH 10 0
BBX 8 14 1 0
BITMAP
0E
0C
18
00
DE
FF
E3
C3
C3
C3
C3
C3
C3
C3
ENDCHAR

STARTCHAR ncaron
ENCODING 242
SWIDTH 556 0
DWIDTH 10 0
BBX 8 14 1 0
BITMAP
66
3C
18
00
DE
FF
E3
C3
C3
C3
C3
C3
C3
C3
ENDCHAR

STARTCHAR oacute
ENCODING 243
SWIDTH 556 0
DWIDTH 11 0
BBX 9 14 1 0
BITMAP
0E00
0C00
1800
0000
3E00
7F00
6300
C180
C180
C180
C180
6300
7F00
3E00
ENDCHAR

STARTCHAR ocircumflex
ENCODING 244
SWIDTH 556 0
DWIDTH 11 0
BBX 9 14 1 0
BITMAP
0C00
1E00
3300
0000
3E00
7F00
6300
C180
C180
C180
C180
6300
7F00
3E00
ENDCHAR

STARTCHAR ohungarumlaut
ENCODING 245
SWIDTH 556 0
DWIDTH 11 0
BBX 9 14 1 0
BITMAP
3B80
3300
6600
0000
3E00
7F00
6300
C180
C180
C180
C180
6300
7F00
3E00
ENDCHAR

STARTCHAR odieresis
ENCODING 246
SWIDTH 556 0
DWIDTH 11 0
BBX 9 13 1 0
BITMAP
3300
3300
0000
3E00
7F00
6300
C180
C180
C180
C180
6300
7F00
3E00
ENDCHAR

STARTCHAR divide
ENCODING 247
SWIDTH 584 0
DWIDTH 11 0
BBX 8 8 2 3
BITMAP
18
18
00
FF
FF
00
18
18
ENDCHAR

STARTCHAR rcaron
ENCODING 248
SWIDTH 333 0
DWIDTH 7 0
BBX 6 14 1 0
BITMAP
CC
78
30
00
DC
FC
E0
C0
C0
C0
C0
C0
C0
C0
ENDCHAR

STARTCHAR uring
ENCODING 249
SWIDTH 556 0
DWIDTH 10 0
BBX 8 15 1 0
BITMAP
10
28
28
10
00
C3
C3
C3
C3
C3
C3
C3
C7
FF
7B
ENDCHAR

STARTCHAR uacute
ENCODING 250
SWIDTH 556 0
DWIDTH 10 0
BBX 8 14 1 0
BITMAP
0E
0C
18
00
C3
C3
C3
C3
C3
C3
C3
C7
FF
7B
ENDCHAR

STARTCHAR uhungarumlaut
ENCODING 251
SWIDTH 556 0
DWIDTH 10 0
BBX 9 14 1 0
BITMAP
3B80
3300
6600
0000
C300
C300
C300
C300
C300
C300
C300
C700
FF00
7B00
ENDCHAR

STARTCHAR udieresis
ENCODING 252
SWIDTH 556 0
DWIDTH 10 0
BBX 8 13 1 0
BITMAP
66
66
00
C3
C3
C3
C3
C3
C3
C3
C7
FF
7B
ENDCHAR

STARTCHAR yacute
ENCODING 253
SWIDTH 500 0
DWIDTH 10 0
BBX 10 18 0 -4
BITMAP
0700
0600
0C00
0000
C0C0
6180
6180
3300
3300
1E00
1E00
0E00
0C00
0C00
1800
1800
7000
6000
ENDCHAR

STARTCHAR tcommaaccent
ENCODING 254
SWIDTH 278 0
DWIDTH 5 0
BBX 5 18 0 -4
BITMAP
20
60
60
60
F8
F8
60
60
60
60
60
60
78
38
00
30
30
60
ENDCHAR

STARTCHAR dotaccent
ENCODING 255
SWIDTH 333 0
DWIDTH 6 0
BBX 2 2 2 11
BITMAP
C0
C0
ENDCHAR
ENDFONT
